<svg width="24" height="35" viewBox="0 0 24 35" fill="none" xmlns="http://www.w3.org/2000/svg">
<path d="M12.3907 0.229492C12.3907 0.752673 12.3907 1.081 12.3907 1.40932C12.3907 8.16262 12.4864 14.9213 12.3429 21.6719C12.2871 24.2611 12.6805 26.5193 14.3097 28.588C15.4473 30.0348 16.3536 31.6657 17.4035 33.2726C17.943 32.7041 18.4108 32.261 18.8254 31.7698C20.6859 29.565 22.3125 27.2294 22.6288 24.2451C22.6713 23.8527 22.6182 23.2388 22.3736 23.0679C21.3929 22.3793 20.3165 21.824 19.0885 21.1087C19.2188 23.3989 19.1949 25.4543 17.6932 27.2854C17.0898 26.2844 16.1463 25.3956 16.0533 24.4266C15.822 22.0162 15.9762 19.5658 15.9762 16.998C18.2566 18.3113 20.4015 19.5471 22.6926 20.8658C22.6926 19.6432 22.6474 18.6529 22.7085 17.6706C22.7511 16.9873 22.48 16.6269 21.9085 16.3093C20.1331 15.319 18.3736 14.294 16.638 13.2369C16.3377 13.0554 15.9868 12.6577 15.9762 12.3507C15.9151 10.4182 15.947 8.48293 15.947 6.513C19.0806 7.77023 19.1231 7.82896 19.1231 10.9227C19.1231 11.3658 19.1071 11.8115 19.1311 12.252C19.1417 12.4415 19.1709 12.7244 19.2932 12.7992C20.359 13.4665 21.446 14.0964 22.7005 14.8412C22.7005 11.9503 22.7218 9.3291 22.6713 6.70786C22.666 6.40356 22.3099 6.00583 22.0095 5.82165C20.5371 4.91676 19.0274 4.06526 17.531 3.20041C15.8699 2.24214 14.2087 1.28119 12.3907 0.229492ZM6.72686 30.5793C6.81723 30.6033 6.91026 30.6274 7.00063 30.6514C7.93885 29.202 8.90896 27.7739 9.79934 26.2951C10.0784 25.8306 10.2831 25.2381 10.2831 24.7015C10.315 16.9232 10.3043 9.14492 10.3017 1.36394C10.3017 1.04363 10.2671 0.723311 10.2405 0.288217C9.27574 0.835421 8.44384 1.34792 7.57472 1.78569C6.94481 2.10333 6.74015 2.54377 6.74812 3.24579C6.78533 6.14464 6.77205 9.04615 6.75078 11.945C6.74813 12.2867 6.68168 12.7832 6.45842 12.938C5.58133 13.5466 4.63247 14.0484 3.53478 14.6917C3.53478 11.0855 3.53478 7.70083 3.53478 4.16936C2.39456 4.82601 1.37927 5.36254 0.425098 5.99516C0.185891 6.15265 0.0290782 6.61176 0.0264203 6.93208C0.00249965 12.4255 -0.0161105 17.9189 0.0210994 23.4123C0.0397044 26.4553 1.50153 28.8843 3.57199 31.0678C3.57199 30.7395 3.57199 30.4111 3.57199 30.0828C3.57199 26.6021 3.56402 23.1213 3.58528 19.6432C3.58794 19.2989 3.64376 18.7944 3.86436 18.6423C4.71753 18.0523 5.64778 17.5772 6.72686 16.9553C6.72686 21.6212 6.72686 26.1002 6.72686 30.5793Z" fill="url(#paint0_linear)" stroke="url(#paint1_linear)" stroke-miterlimit="10"/>
<defs>
<linearGradient id="paint0_linear" x1="0.00374555" y1="16.7524" x2="22.7121" y2="16.7524" gradientUnits="userSpaceOnUse">
<stop stop-color="#00D29D"/>
<stop offset="1" stop-color="#00889D"/>
</linearGradient>
<linearGradient id="paint1_linear" x1="22.5876" y1="28.2607" x2="0.226367" y2="5.99532" gradientUnits="userSpaceOnUse">
<stop stop-color="#00D29D"/>
<stop offset="1" stop-color="#00889D"/>
</linearGradient>
</defs>
</svg>
